<?xml version="1.0" encoding="UTF-8" standalone="no"?><!DOCTYPE svg PUBLIC "-//W3C//DTD SVG 1.1//EN" "http://www.w3.org/Graphics/SVG/1.1/DTD/svg11.dtd"><svg width="100%" height="100%" viewBox="0 0 512 512" version="1.1" xmlns="http://www.w3.org/2000/svg" xmlns:xlink="http://www.w3.org/1999/xlink" xml:space="preserve" xmlns:serif="http://www.serif.com/" style="fill-rule:evenodd;clip-rule:evenodd;stroke-linejoin:round;stroke-miterlimit:1.41421;"><g><path d="M194.138,410.06c-60.829,-18.025 -236.292,-95.056 -37.445,-351.06c107.526,72.972 148.959,137.178 156.63,190.234c-51.433,18.419 -86.841,54.23 -82.428,119.019c-28.014,-66.621 -49.991,-158.762 -59.419,-216.211c-4.728,67.11 5.173,186.476 22.662,258.018Z" style="fill:#fff;"/><path d="M262.982,426.143c-14.807,-41.157 -45.566,-174.959 184.265,-167.583c6.745,210.19 -104.583,202.432 -155.141,188.245c20.929,-40.74 47.871,-77.508 81.964,-108.551c-41.823,23.155 -79.068,52.528 -111.088,87.889Z" style="fill:#fff;"/></g></svg>